<?xml version="1.0" encoding="UTF-8" standalone="no"?>
<svg
   version="1.2"
   width="7.8200812mm"
   height="4.7624998mm"
   viewBox="25846 5391 782.0081 476.24996"
   preserveAspectRatio="xMidYMid"
   fill-rule="evenodd"
   stroke-width="28.222"
   stroke-linejoin="round"
   xml:space="preserve"
   id="svg106"
   sodipodi:docname="fn-f12.svg"
   inkscape:version="1.1.2 (0a00cf5339, 2022-02-04)"
   xmlns:inkscape="http://www.inkscape.org/namespaces/inkscape"
   xmlns:sodipodi="http://sodipodi.sourceforge.net/DTD/sodipodi-0.dtd"
   xmlns="http://www.w3.org/2000/svg"
   xmlns:svg="http://www.w3.org/2000/svg"><sodipodi:namedview
   id="namedview108"
   pagecolor="#ffffff"
   bordercolor="#666666"
   borderopacity="1.0"
   inkscape:pageshadow="2"
   inkscape:pageopacity="0.0"
   inkscape:pagecheckerboard="0"
   inkscape:document-units="mm"
   showgrid="false"
   inkscape:zoom="4.9556765"
   inkscape:cx="-4.8429312"
   inkscape:cy="55.49192"
   inkscape:window-width="1920"
   inkscape:window-height="1011"
   inkscape:window-x="0"
   inkscape:window-y="32"
   inkscape:window-maximized="1"
   inkscape:current-layer="svg106" />
 <defs
   class="EmbeddedBulletChars"
   id="defs32">
  <g
   id="bullet-char-template-57356"
   transform="matrix(4.8828125e-4,0,0,-4.8828125e-4,0,0)">
   <path
   d="M 580,1141 1163,571 580,0 -4,571 Z"
   id="path2" />
  </g>
  <g
   id="bullet-char-template-57354"
   transform="matrix(4.8828125e-4,0,0,-4.8828125e-4,0,0)">
   <path
   d="M 8,1128 H 1137 V 0 H 8 Z"
   id="path5" />
  </g>
  <g
   id="bullet-char-template-10146"
   transform="matrix(4.8828125e-4,0,0,-4.8828125e-4,0,0)">
   <path
   d="M 174,0 602,739 174,1481 1456,739 Z M 1358,739 309,1346 659,739 Z"
   id="path8" />
  </g>
  <g
   id="bullet-char-template-10132"
   transform="matrix(4.8828125e-4,0,0,-4.8828125e-4,0,0)">
   <path
   d="M 2015,739 1276,0 H 717 l 543,543 H 174 v 393 h 1086 l -543,545 h 557 z"
   id="path11" />
  </g>
  <g
   id="bullet-char-template-10007"
   transform="matrix(4.8828125e-4,0,0,-4.8828125e-4,0,0)">
   <path
   d="m 0,-2 c -7,16 -16,29 -25,39 l 381,530 c -94,256 -141,385 -141,387 0,25 13,38 40,38 9,0 21,-2 34,-5 21,4 42,12 65,25 l 27,-13 111,-251 280,301 64,-25 24,25 c 21,-10 41,-24 62,-43 C 886,937 835,863 770,784 769,783 710,716 594,584 L 774,223 c 0,-27 -21,-55 -63,-84 l 16,-20 C 717,90 699,76 672,76 641,76 570,178 457,381 L 164,-76 c -22,-34 -53,-51 -92,-51 -42,0 -63,17 -64,51 -7,9 -10,24 -10,44 0,9 1,19 2,30 z"
   id="path14" />
  </g>
  <g
   id="bullet-char-template-10004"
   transform="matrix(4.8828125e-4,0,0,-4.8828125e-4,0,0)">
   <path
   d="M 285,-33 C 182,-33 111,30 74,156 52,228 41,333 41,471 c 0,78 14,145 41,201 34,71 87,106 158,106 53,0 88,-31 106,-94 l 23,-176 c 8,-64 28,-97 59,-98 l 735,706 c 11,11 33,17 66,17 42,0 63,-15 63,-46 V 965 c 0,-36 -10,-64 -30,-84 L 442,47 C 390,-6 338,-33 285,-33 Z"
   id="path17" />
  </g>
  <g
   id="bullet-char-template-9679"
   transform="matrix(4.8828125e-4,0,0,-4.8828125e-4,0,0)">
   <path
   d="M 813,0 C 632,0 489,54 383,161 276,268 223,411 223,592 c 0,181 53,324 160,431 106,107 249,161 430,161 179,0 323,-54 432,-161 108,-107 162,-251 162,-431 0,-180 -54,-324 -162,-431 C 1136,54 992,0 813,0 Z"
   id="path20" />
  </g>
  <g
   id="bullet-char-template-8226"
   transform="matrix(4.8828125e-4,0,0,-4.8828125e-4,0,0)">
   <path
   d="m 346,457 c -73,0 -137,26 -191,78 -54,51 -81,114 -81,188 0,73 27,136 81,188 54,52 118,78 191,78 73,0 134,-26 185,-79 51,-51 77,-114 77,-187 0,-75 -25,-137 -76,-188 -50,-52 -112,-78 -186,-78 z"
   id="path23" />
  </g>
  <g
   id="bullet-char-template-8211"
   transform="matrix(4.8828125e-4,0,0,-4.8828125e-4,0,0)">
   <path
   d="M -4,459 H 1135 V 606 H -4 Z"
   id="path26" />
  </g>
  <g
   id="bullet-char-template-61548"
   transform="matrix(4.8828125e-4,0,0,-4.8828125e-4,0,0)">
   <path
   d="m 173,740 c 0,163 58,303 173,419 116,115 255,173 419,173 163,0 302,-58 418,-173 116,-116 174,-256 174,-419 0,-163 -58,-303 -174,-418 C 1067,206 928,148 765,148 601,148 462,206 346,322 231,437 173,577 173,740 Z"
   id="path29" />
  </g>
 </defs>
 <g
   class="Page"
   id="g104"
   transform="matrix(1.4090236,0,0,1.4090236,-10571.624,-2205.0462)"
   style="stroke-width:20.0295">
  <g
   class="com.sun.star.drawing.PolyPolygonShape"
   id="g39"
   style="stroke-width:20.0295">
   <g
   id="id3"
   style="stroke-width:20.0295">
    <rect
   class="BoundingBox"
   stroke="none"
   fill="none"
   x="25993"
   y="5391"
   width="41"
   height="59"
   id="rect34"
   style="stroke-width:14.2151" />
    <path
   fill="#918f8f"
   stroke="none"
   d="m 25994,5392 h 39 v 57 h -39 z"
   id="path36"
   style="stroke-width:14.2151" />
   </g>
  </g>
  <g
   class="com.sun.star.drawing.PolyPolygonShape"
   id="g46"
   style="stroke-width:20.0295">
   <g
   id="id4"
   style="stroke-width:20.0295">
    <rect
   class="BoundingBox"
   stroke="none"
   fill="none"
   x="26079"
   y="5428"
   width="68"
   height="68"
   id="rect41"
   style="stroke-width:14.2151" />
    <path
   fill="#918f8f"
   stroke="none"
   d="m 26146,5456 -27,-28 -40,41 27,26 z"
   id="path43"
   style="stroke-width:14.2151" />
   </g>
  </g>
  <g
   class="com.sun.star.drawing.PolyPolygonShape"
   id="g53"
   style="stroke-width:20.0295">
   <g
   id="id5"
   style="stroke-width:20.0295">
    <rect
   class="BoundingBox"
   stroke="none"
   fill="none"
   x="25881"
   y="5428"
   width="68"
   height="68"
   id="rect48"
   style="stroke-width:14.2151" />
    <path
   fill="#918f8f"
   stroke="none"
   d="m 25948,5469 -39,-41 -28,28 41,39 z"
   id="path50"
   style="stroke-width:14.2151" />
   </g>
  </g>
  <g
   class="com.sun.star.drawing.PolyPolygonShape"
   id="g60"
   style="stroke-width:20.0295">
   <g
   id="id6"
   style="stroke-width:20.0295">
    <rect
   class="BoundingBox"
   stroke="none"
   fill="none"
   x="26125"
   y="5541"
   width="58"
   height="40"
   id="rect55"
   style="stroke-width:14.2151" />
    <path
   fill="#918f8f"
   stroke="none"
   d="m 26125,5541 h 57 v 39 h -57 z"
   id="path57"
   style="stroke-width:14.2151" />
   </g>
  </g>
  <g
   class="com.sun.star.drawing.PolyPolygonShape"
   id="g67"
   style="stroke-width:20.0295">
   <g
   id="id7"
   style="stroke-width:20.0295">
    <rect
   class="BoundingBox"
   stroke="none"
   fill="none"
   x="25993"
   y="5671"
   width="41"
   height="58"
   id="rect62"
   style="stroke-width:14.2151" />
    <path
   fill="#918f8f"
   stroke="none"
   d="m 25994,5671 h 39 v 57 h -39 z"
   id="path64"
   style="stroke-width:14.2151" />
   </g>
  </g>
  <g
   class="com.sun.star.drawing.PolyPolygonShape"
   id="g74"
   style="stroke-width:20.0295">
   <g
   id="id8"
   style="stroke-width:20.0295">
    <rect
   class="BoundingBox"
   stroke="none"
   fill="none"
   x="26079"
   y="5625"
   width="68"
   height="68"
   id="rect69"
   style="stroke-width:14.2151" />
    <path
   fill="#918f8f"
   stroke="none"
   d="m 26079,5653 40,39 27,-26 -40,-41 z"
   id="path71"
   style="stroke-width:14.2151" />
   </g>
  </g>
  <g
   class="com.sun.star.drawing.PolyPolygonShape"
   id="g81"
   style="stroke-width:20.0295">
   <g
   id="id9"
   style="stroke-width:20.0295">
    <rect
   class="BoundingBox"
   stroke="none"
   fill="none"
   x="25881"
   y="5625"
   width="68"
   height="68"
   id="rect76"
   style="stroke-width:14.2151" />
    <path
   fill="#918f8f"
   stroke="none"
   d="m 25881,5666 28,26 39,-39 -26,-28 z"
   id="path78"
   style="stroke-width:14.2151" />
   </g>
  </g>
  <g
   class="com.sun.star.drawing.PolyPolygonShape"
   id="g88"
   style="stroke-width:20.0295">
   <g
   id="id10"
   style="stroke-width:20.0295">
    <rect
   class="BoundingBox"
   stroke="none"
   fill="none"
   x="25846"
   y="5541"
   width="58"
   height="40"
   id="rect83"
   style="stroke-width:14.2151" />
    <path
   fill="#918f8f"
   stroke="none"
   d="m 25846,5541 h 57 v 39 h -57 z"
   id="path85"
   style="stroke-width:14.2151" />
   </g>
  </g>
  <g
   class="com.sun.star.drawing.PolyPolygonShape"
   id="g95"
   style="stroke-width:20.0295">
   <g
   id="id11"
   style="stroke-width:20.0295">
    <rect
   class="BoundingBox"
   stroke="none"
   fill="none"
   x="25915"
   y="5461"
   width="199"
   height="200"
   id="rect90"
   style="stroke-width:14.2151" />
    <path
   fill="#918f8f"
   stroke="none"
   d="m 26078,5559 v 7 l -1,6 -2,6 -2,6 -2,6 -4,5 -3,5 -5,5 -4,4 -5,4 -6,4 -6,3 -6,2 -6,2 -6,1 h -6 -7 l -6,-1 -6,-2 -6,-2 -6,-3 -5,-4 -10,-8 -4,-4 -4,-5 -3,-6 -3,-5 -2,-6 -2,-6 -1,-7 v -6 -7 l 1,-6 2,-7 2,-5 3,-6 3,-5 8,-10 4,-4 5,-4 6,-3 5,-3 6,-2 6,-2 7,-1 h 7 6 l 6,1 7,2 5,2 6,2 6,4 4,3 5,5 4,4 7,11 3,5 2,6 2,6 1,7 z m 12,64 6,-9 5,-8 5,-8 3,-9 2,-10 2,-10 v -10 -10 l -2,-10 -2,-9 -4,-9 -5,-9 -5,-8 -5,-8 -7,-7 -7,-6 -7,-6 -8,-5 -9,-4 -9,-3 -10,-2 -10,-2 h -10 -10 l -9,2 -10,2 -9,4 -9,4 -8,5 -7,5 -7,7 -7,7 -5,7 -6,8 -4,9 -3,9 -2,10 -2,9 v 11 10 l 2,9 2,10 4,9 4,9 5,9 5,7 7,7 7,7 7,5 9,5 8,5 9,3 10,2 10,2 h 10 10 l 10,-2 9,-2 9,-4 9,-4 8,-5 8,-5 6,-7 z"
   id="path92"
   style="stroke-width:14.2151" />
   </g>
  </g>
  <g
   class="com.sun.star.drawing.PolyPolygonShape"
   id="g102"
   style="stroke-width:20.0295">
   <g
   id="id12"
   style="stroke-width:20.0295">
    <rect
   class="BoundingBox"
   stroke="none"
   fill="none"
   x="26215"
   y="5468"
   width="186"
   height="187"
   id="rect97"
   style="stroke-width:14.2151" />
    <path
   fill="#918f8f"
   stroke="none"
   d="m 26400,5541 h -73 v -73 h -38 v 73 h -74 v 38 h 74 v 74 h 38 v -74 h 73 z"
   id="path99"
   style="stroke-width:14.2151" />
   </g>
  </g>
 </g>
</svg>
